# xmcd CD database file generated by OrangeCD 5.2
#
# Track frame offsets:
#	150
#	41117
#	86872
#	128960
#	159555
#	189010
#	213580
#	246327
#	271302
#	300027
#
# Disc length: 4190 seconds
#
# Revision: 4
# Processed by: cddbd v1.5.1PL0 Copyright (c) Steve Scherf et al.
# Submitted via: OrangeCD 5.2
#
DISCID=84105c0a
DTITLE=Branford Marsalis - I Heard You Twice the First Time
DYEAR=1992
DGENRE=Jazz
TTITLE0=Brother Trying to Catch a Cab (on the eastside) Blues
TTITLE1=B.B.'s Blues
TTITLE2=Rib Tip Johnson
TTITLE3=Mabel
TTITLE4=Sidney in Da House
TTITLE5=Berta, Berta
TTITLE6=Stretto from the Ghetto
TTITLE7=Dance of the Hei Gui
TTITLE8=The Road You Choose
TTITLE9=Simi Valley Blues
EXTD=Label =ColumbiaCK 46083
EXTT0=
EXTT1=
EXTT2=
EXTT3=
EXTT4=
EXTT5=
EXTT6=
EXTT7=
EXTT8=
EXTT9=
PLAYORDER=
